<?xml version="1.0" encoding="UTF-8" standalone="no"?>
<!-- Uploaded to: SVG Repo, www.svgrepo.com, Generator: SVG Repo Mixer Tools -->

<svg
   fill="#000000"
   version="1.1"
   id="Capa_1"
   width="100"
   height="100"
   viewBox="0 0 100 100"
   xml:space="preserve"
   sodipodi:docname="black-folder-interface-symbol-with-equal-sign-svgrepo-com.svg"
   inkscape:version="1.3 (0e150ed6c4, 2023-07-21)"
   xmlns:inkscape="http://www.inkscape.org/namespaces/inkscape"
   xmlns:sodipodi="http://sodipodi.sourceforge.net/DTD/sodipodi-0.dtd"
   xmlns="http://www.w3.org/2000/svg"
   xmlns:svg="http://www.w3.org/2000/svg"><defs
   id="defs2">&#10;		&#10;	&#10;	&#10;</defs><sodipodi:namedview
   id="namedview2"
   pagecolor="#505050"
   bordercolor="#eeeeee"
   borderopacity="1"
   inkscape:showpageshadow="0"
   inkscape:pageopacity="0"
   inkscape:pagecheckerboard="0"
   inkscape:deskcolor="#d1d1d1"
   inkscape:zoom="8.0539462"
   inkscape:cx="51.775861"
   inkscape:cy="56.183638"
   inkscape:window-width="3440"
   inkscape:window-height="1377"
   inkscape:window-x="-8"
   inkscape:window-y="-8"
   inkscape:window-maximized="1"
   inkscape:current-layer="Capa_1" />&#10;<path
   d="M 98.453305,22.422514 H 46.391047 c -0.854219,0 -2.052486,-0.472769 -2.676892,-1.055896 L 38.114718,16.133805 C 37.490312,15.550678 36.292214,15.077909 35.437826,15.077909 H 1.546695 C 0.69247509,15.077909 1e-6,15.770214 1e-6,16.624602 v 66.750796 c 0,0.854219 0.6923056,1.546693 1.546694,1.546693 h 96.90661 c 0.85422,0 1.546694,-0.692305 1.546694,-1.546693 V 23.969377 C 99.99983,23.114989 99.307525,22.422514 98.453305,22.422514 Z M 91.073486,76.434145 H 60.826689 v -7.561782 h 30.246628 v 7.561782 z m 0,-12.342213 H 60.826689 v -7.561783 h 30.246628 v 7.561784 z"
   id="folder"
   style="stroke-width:1" />&#10;</svg>
