<?xml version="1.0" encoding="UTF-8" standalone="no"?>
<!-- Uploaded to: SVG Repo, www.svgrepo.com, Transformed by: SVG Repo Mixer Tools -->

<svg
   fill="#000000"
   width="100"
   height="100"
   viewBox="0 0 100 100"
   version="1.1"
   stroke="#000000"
   stroke-width="0.00032"
   id="svg1"
   sodipodi:docname="home-svgrepo-com.svg"
   inkscape:version="1.3 (0e150ed6c4, 2023-07-21)"
   xmlns:inkscape="http://www.inkscape.org/namespaces/inkscape"
   xmlns:sodipodi="http://sodipodi.sourceforge.net/DTD/sodipodi-0.dtd"
   xmlns="http://www.w3.org/2000/svg"
   xmlns:svg="http://www.w3.org/2000/svg">
  <defs
     id="defs1" />
  <sodipodi:namedview
     id="namedview1"
     pagecolor="#505050"
     bordercolor="#eeeeee"
     borderopacity="1"
     inkscape:showpageshadow="0"
     inkscape:pageopacity="0"
     inkscape:pagecheckerboard="0"
     inkscape:deskcolor="#d1d1d1"
     inkscape:zoom="5.695"
     inkscape:cx="57.418788"
     inkscape:cy="78.928885"
     inkscape:window-width="3440"
     inkscape:window-height="1377"
     inkscape:window-x="-8"
     inkscape:window-y="-8"
     inkscape:window-maximized="1"
     inkscape:current-layer="svg1" />
  <path
     d="m 83.368502,33.632877 15.512769,15.917885 c 1.874369,1.950697 1.339449,3.45456 -1.202507,3.45456 H 86.043117 v 41.589256 c 0,2.853977 -2.139692,5.405258 -4.681647,5.405258 H 61.167054 V 70.869099 c 0,-2.853976 -2.272353,-5.405258 -4.814308,-5.405258 H 43.647253 c -2.541952,0 -4.814306,2.551282 -4.814306,5.405258 V 99.999836 H 18.638531 c -2.541955,0 -4.814308,-2.551281 -4.814308,-5.405258 V 53.005322 H 2.3212368 c -2.54195447,0 -3.07687755,-1.503863 -1.2025071,-3.45456 L 46.454529,3.3057765 c 1.874371,-1.9506977 5.083909,-1.9506977 7.086661,0 L 63.83739,13.664654 V 5.4054189 c 0,-2.8539763 2.272353,-5.40525806253 4.814308,-5.40525806253 h 10.030877 c 2.541955,0 4.681647,2.55128176253 4.681647,5.40525806253 V 33.632877 Z"
     id="path1"
     style="stroke-width:0.00032" />
</svg>
