<?xml version="1.0" encoding="UTF-8" standalone="no"?>
<!-- Created with Inkscape (http://www.inkscape.org/) -->

<svg
   width="100"
   height="100"
   viewBox="0 0 100 100"
   version="1.1"
   id="svg1"
   inkscape:version="1.3 (0e150ed6c4, 2023-07-21)"
   sodipodi:docname="drawing3.svg"
   inkscape:export-filename="drawing3-simple.svg"
   inkscape:export-xdpi="96"
   inkscape:export-ydpi="96"
   xmlns:inkscape="http://www.inkscape.org/namespaces/inkscape"
   xmlns:sodipodi="http://sodipodi.sourceforge.net/DTD/sodipodi-0.dtd"
   xmlns="http://www.w3.org/2000/svg"
   xmlns:svg="http://www.w3.org/2000/svg">
  <sodipodi:namedview
     id="namedview1"
     pagecolor="#505050"
     bordercolor="#eeeeee"
     borderopacity="1"
     inkscape:showpageshadow="0"
     inkscape:pageopacity="0"
     inkscape:pagecheckerboard="0"
     inkscape:deskcolor="#d1d1d1"
     inkscape:document-units="mm"
     inkscape:zoom="5.7399056"
     inkscape:cx="12.54376"
     inkscape:cy="49.565275"
     inkscape:window-width="3440"
     inkscape:window-height="1377"
     inkscape:window-x="-8"
     inkscape:window-y="-8"
     inkscape:window-maximized="1"
     inkscape:current-layer="layer1" />
  <defs
     id="defs1" />
  <g
     inkscape:label="Layer 1"
     inkscape:groupmode="layer"
     id="layer1">
    <path
       id="moon"
       style="fill:#ff0000;fill-opacity:1;stroke:none;stroke-width:0.264583"
       d="m -230.67426,-40.340672 a 32.507617,32.499999 0 0 0 -16.68724,4.680339 c 0.73779,1.029648 1.17501,2.288526 1.17501,3.647786 0,3.462476 -2.82151,6.283333 -6.2848,6.283333 -1.58045,0 -3.02687,-0.589518 -4.13288,-1.557292 a 32.507617,32.499999 0 0 0 -6.56247,19.2444011 c 0.59781,-0.41875 1.32344,-0.665234 2.10622,-0.665234 2.02958,0 3.6842,1.654238 3.6842,3.683333 0,2.029107 -1.65462,3.683333 -3.6842,3.683333 -0.51405,0 -1.00246,-0.106468 -1.44759,-0.297916 a 32.507617,32.499999 0 0 0 31.83375,26.2979149 32.507617,32.499999 0 0 0 22.63343,-9.284505 c -2.87269,-0.577477 -5.04545,-3.121201 -5.04545,-6.1597649 0,-3.462472 2.82152,-6.283334 6.28481,-6.283334 2.33173,0 4.37052,1.279858 5.45518,3.172136 a 32.507617,32.499999 0 0 0 3.17965,-13.944531 32.507617,32.499999 0 0 0 -32.50762,-32.4999991 z m -16.83115,4.758202 a 32.507617,32.499999 0 0 0 -0.86688,0.509507 32.507617,32.499999 0 0 1 0.86688,-0.509507 z m -0.97014,0.587371 a 32.507617,32.499999 0 0 0 -7.34979,6.676041 c 0.88423,0.802368 2.06091,1.289844 3.35405,1.289844 2.76056,0 4.9845,-2.223426 4.9845,-4.983333 0,-1.120769 -0.36826,-2.151708 -0.98876,-2.982552 z m 31.25979,3.541145 c 4.77731,0 8.66869,3.890474 8.66869,8.666667 0,4.776193 -3.89138,8.666666 -8.66869,8.666666 -4.77733,0 -8.6687,-3.890473 -8.6687,-8.666666 0,-4.776193 3.89137,-8.666667 8.6687,-8.666667 z m 0,1.733334 c -3.84034,0 -6.93497,3.093901 -6.93497,6.933333 0,3.839432 3.09463,6.933333 6.93497,6.933333 3.84033,0 6.93495,-3.093901 6.93495,-6.933333 0,-3.839432 -3.09462,-6.933333 -6.93495,-6.933333 z m -22.6165,6.171614 c 3.4633,0 6.2848,2.820855 6.2848,6.283333 0,3.46247 -2.8215,6.283334 -6.2848,6.283334 -3.4633,0 -6.28482,-2.820864 -6.28482,-6.283334 0,-3.462478 2.82152,-6.283333 6.28482,-6.283333 z m 0,1.3 c -2.76056,0 -4.9845,2.223424 -4.9845,4.983333 0,2.75991 2.22394,4.983334 4.9845,4.983334 2.76057,0 4.98449,-2.223424 4.98449,-4.983334 0,-2.759909 -2.22392,-4.983333 -4.98449,-4.983333 z m -21.22816,14.4083331 c -0.81466,0 -1.5437,0.34317 -2.05712,0.892057 a 32.507617,32.499999 0 0 0 0.36233,4.175911 c 0.47125,0.35473 1.05669,0.565366 1.69479,0.565366 1.5611,0 2.81733,-1.255941 2.81733,-2.816667 0,-1.560717 -1.25623,-2.816667 -2.81733,-2.816667 z m 38.38609,2.412109 c 2.02958,0 3.68419,1.654236 3.68419,3.683334 0,2.029106 -1.65461,3.683333 -3.68419,3.683333 -2.0296,0 -3.68419,-1.654227 -3.68419,-3.683333 0,-2.029098 1.65459,-3.683334 3.68419,-3.683334 z m -19.95833,0.666927 c 4.77733,0 8.6687,3.89051 8.6687,8.666667 0,1.156485 -0.23144,2.25865 -0.64507,3.26862 0.59436,-0.187068 1.2277,-0.287761 1.88273,-0.287761 3.46325,0 6.28481,2.820873 6.28481,6.2833329 0,3.462469 -2.82156,6.283333 -6.28481,6.283333 -3.4633,0 -6.2848,-2.820864 -6.2848,-6.283333 0,-0.5126 0.0629,-1.010486 0.17947,-1.48789 -1.14981,0.564586 -2.43672,0.890364 -3.80103,0.890364 -4.77726,0 -8.66869,-3.8905039 -8.66869,-8.6666659 0,-4.776157 3.89143,-8.666667 8.66869,-8.666667 z m 19.95833,0.19974 c -1.56111,0 -2.81734,1.255951 -2.81734,2.816667 0,1.560724 1.25623,2.816666 2.81734,2.816666 1.56109,0 2.81732,-1.255942 2.81732,-2.816666 0,-1.560716 -1.25623,-2.816667 -2.81732,-2.816667 z m -19.95833,1.533594 c -3.84026,0 -6.93496,3.093931 -6.93496,6.933333 0,3.839408 3.0947,6.9333329 6.93496,6.9333329 3.84033,0 6.93495,-3.0939249 6.93495,-6.9333329 0,-3.839402 -3.09462,-6.933333 -6.93495,-6.933333 z m 35.83119,7.260025 c -2.76056,0 -4.98451,2.223434 -4.98451,4.983334 0,2.7394759 2.19141,4.9490619 4.92355,4.9816399 a 32.507617,32.499999 0 0 0 4.74747,-6.6861969 c -0.69388,-1.915809 -2.52549,-3.278777 -4.68651,-3.278777 z m -25.92483,3.954167 c -1.18216,0 -2.26587,0.408805 -3.1187,1.091797 -0.29234,0.368243 -0.61608,0.709473 -0.96338,1.0257809 -0.56875,0.809778 -0.90241,1.797275 -0.90241,2.865755 0,2.759902 2.22393,4.983333 4.98449,4.983333 2.76052,0 4.98449,-2.223431 4.9845,-4.983333 -10e-6,-2.759888 -2.22398,-4.9833329 -4.9845,-4.9833329 z" />
    <g
       id="sun"
       style="fill:#00ff00;fill-opacity:1;stroke:none;stroke-width:0.264583">
      <g
         id="rays"
         transform="translate(266.81416,-4.2941329)"
         style="stroke-width:0.264583">
        <path
           d="m -180.39423,67.4914 c -0.35538,0.981435 -0.73824,1.952436 -1.17187,2.902345 -0.76667,1.678298 -1.65271,3.299443 -2.6504,4.851562 -0.83906,1.305319 -1.77256,2.545275 -2.76172,3.740234 l 13.57032,0.125 z"
           id="ray330"
           style="stroke-width:0.264583" />
        <path
           d="m -191.87274,83.930854 c -1.26935,1.068668 -2.59609,2.067434 -3.9922,2.964843 -1.55211,0.9977 -3.17326,1.881769 -4.85156,2.648438 -0.84685,0.386595 -1.70793,0.73997 -2.58008,1.064453 l 11.66602,6.88086 z"
           id="ray300"
           style="stroke-width:0.264583" />
        <path
           d="m -210.02705,92.423041 c -0.42491,0.07586 -0.84599,0.168915 -1.27343,0.230469 -1.82621,0.26228 -3.66871,0.392818 -5.51367,0.392578 -1.84564,3.4e-4 -3.68875,-0.130198 -5.51563,-0.392578 -0.31754,-0.04573 -0.631,-0.118241 -0.94726,-0.171875 l 6.67382,11.812495 z"
           id="ray270"
           style="stroke-width:0.264583" />
        <path
           d="m -241.50556,84.133978 -0.125,13.568361 11.61718,-6.986329 c -0.98052,-0.355391 -1.94889,-0.738289 -2.89843,-1.171875 -1.67899,-0.766589 -3.30074,-1.650659 -4.85351,-2.648438 -1.30518,-0.838964 -2.54539,-1.772681 -3.74024,-2.761719 z"
           id="ray240"
           style="stroke-width:0.264583" />
        <path
           d="m -253.13056,67.815619 -6.8789,11.662109 13.55859,-0.242186 c -1.06769,-1.269046 -2.06633,-2.594613 -2.96289,-3.990235 -0.99769,-1.552119 -1.88177,-3.173264 -2.64843,-4.851562 -0.38669,-0.846278 -0.74374,-1.707055 -1.06837,-2.578126 z"
           id="ray210"
           style="stroke-width:0.264583" />
        <path
           d="m -254.9997,47.833198 -11.81445,6.673827 11.87109,6.576172 c -0.0757,-0.424897 -0.16711,-0.846017 -0.22851,-1.273436 -0.26229,-1.82622 -0.39282,-3.668717 -0.39258,-5.513673 -2.4e-4,-1.844956 0.13029,-3.687455 0.39258,-5.513672 0.0457,-0.318466 0.11817,-0.632129 0.17187,-0.949218 z"
           id="ray180"
           style="stroke-width:0.264583" />
        <path
           d="m -260.22235,29.477729 6.98632,11.617187 c 0.35535,-0.979991 0.74042,-1.947966 1.17384,-2.896484 0.76666,-1.678297 1.65074,-3.299444 2.64843,-4.851563 0.83891,-1.3059 1.77257,-2.546666 2.76171,-3.742188 z"
           id="ray150"
           style="stroke-width:0.264583" />
        <path
           d="m -241.99775,11.098823 0.2422,13.5625 c 1.26864,-1.067912 2.59498,-2.066031 3.99023,-2.962891 1.55277,-0.99778 3.17452,-1.883805 4.85351,-2.650391 0.84767,-0.387067 1.70755,-0.741576 2.58008,-1.066406 z"
           id="ray120"
           style="stroke-width:0.264583" />
        <path
           d="m -217.02705,4.2941357 -6.57812,11.8749993 c 0.42511,-0.07571 0.84792,-0.166956 1.27539,-0.228516 1.79908,-0.25838 3.61419,-0.385071 5.43165,-0.388672 0.0281,-10e-5 0.0559,-0.0059 0.084,-0.0059 l -0.002,-0.002 c 0.63402,-9e-5 1.26715,0.01586 1.9004,0.04687 0.63341,0.03089 1.26533,0.07673 1.89648,0.138672 h 0.002 c 0.63082,0.06259 1.2597,0.140915 1.88671,0.234375 0.25891,0.0384 0.51537,0.0912 0.77344,0.134766 z"
           id="ray90"
           style="stroke-width:0.264583" />
        <path
           d="m -191.99775,10.887885 -11.61132,6.980468 c 0.54498,0.197403 1.08762,0.403274 1.62304,0.625001 0.58613,0.242707 1.16478,0.500294 1.73828,0.771484 h 0.002 c 0.57269,0.27132 1.13856,0.55639 1.69726,0.855469 0.55874,0.298966 1.10894,0.611493 1.65234,0.9375 h 0.002 c 0.54394,0.325582 1.08011,0.665703 1.60742,1.017578 0.52688,0.351866 1.0457,0.716475 1.55469,1.09375 0.50935,0.37786 1.00981,0.769471 1.5,1.171875 v -0.002 c 0.0364,0.02987 0.0711,0.06178 0.10741,0.0918 z"
           id="ray60"
           style="stroke-width:0.264583" />
        <path
           d="m -173.61883,29.110541 -13.55469,0.240235 c 0.1022,0.121588 0.20991,0.238539 0.31054,0.361328 l 0.002,0.002 c 0.40179,0.489514 0.79261,0.98943 1.16992,1.498047 0.37795,0.508969 0.74318,1.025836 1.09571,1.552734 v 0.002 c 0.35215,0.527102 0.69171,1.061727 1.01758,1.605469 0.32631,0.543885 0.63827,1.09505 0.9375,1.654297 v 0.002 c 0.29801,0.558608 0.58322,1.124728 0.85351,1.697266 l 0.002,0.002 c 0.27075,0.57208 0.52712,1.151672 0.76952,1.736328 v 0.002 c 0.18046,0.436187 0.34538,0.8781 0.50977,1.320312 z"
           id="ray30"
           style="stroke-width:0.264583" />
        <path
           d="m -178.67353,47.514838 c 0.0646,0.365002 0.13511,0.728984 0.18945,1.095703 v 0.002 c 0.0928,0.627021 0.17052,1.255902 0.23243,1.886719 0.0619,0.630496 0.10777,1.261761 0.13867,1.894531 v 0.002 c 0.0316,0.632582 0.0482,1.267017 0.0488,1.90039 -4.3e-4,1.845003 -0.13354,3.687502 -0.39648,5.513673 -0.0459,0.319322 -0.11811,0.633232 -0.17188,0.951171 l 11.81836,-6.677734 z"
           id="ray0"
           style="stroke-width:0.264583" />
      </g>
      <path
         id="circle"
         d="M 50,9.9999998 A 40,40 0 0 0 10,50 40,40 0 0 0 50,90 40,40 0 0 0 90,50 40,40 0 0 0 50,9.9999998 Z M 50,17.5 A 32.5,32.5 0 0 1 82.5,50 32.5,32.5 0 0 1 50,82.5 32.5,32.5 0 0 1 17.5,50 32.5,32.5 0 0 1 50,17.5 Z"
         style="stroke-width:0.264583" />
    </g>
    <path
       d="m -32.804639,20.433502 c -0.24002,0 -0.47732,0.01156 -0.71094,0.03516 -0.23362,0.0236 -0.46338,0.05942 -0.68946,0.105469 -0.22607,0.04605 -0.44863,0.102568 -0.66601,0.169922 -0.21738,0.06735 -0.43113,0.14491 -0.63867,0.232422 -0.20754,0.08751 -0.40892,0.184493 -0.60547,0.291015 -0.19656,0.106523 -0.38785,0.223269 -0.57227,0.347656 -0.18442,0.124388 -0.36206,0.257333 -0.5332,0.398438 -0.17114,0.141105 -0.33547,0.288637 -0.49219,0.445312 -0.15671,0.156676 -0.30612,0.321088 -0.44726,0.492188 -0.14114,0.1711 -0.27402,0.350779 -0.39844,0.535156 -0.12442,0.184378 -0.24111,0.373804 -0.34766,0.570313 -0.10655,0.196508 -0.20348,0.399929 -0.29101,0.607422 -0.0875,0.207492 -0.16505,0.419388 -0.23242,0.636718 -0.0674,0.217331 -0.12387,0.439995 -0.16993,0.666016 -0.0461,0.226021 -0.0819,0.455888 -0.10547,0.689453 -0.0236,0.233565 -0.0351,0.470975 -0.0351,0.710938 0,0.239962 0.0115,0.475419 0.0351,0.708984 0.0236,0.233565 0.0594,0.465385 0.10547,0.691406 0.0461,0.226021 0.10255,0.446732 0.16993,0.664063 0.0674,0.21733 0.14488,0.431179 0.23242,0.638672 0.0875,0.207492 0.18446,0.40896 0.29101,0.605468 0.10655,0.196509 0.22324,0.387888 0.34766,0.572266 0.12442,0.184378 0.2573,0.362103 0.39844,0.533203 0.14114,0.1711 0.29055,0.335512 0.44726,0.492188 0.15672,0.156675 0.32105,0.306161 0.49219,0.447265 0.17114,0.141105 0.34878,0.274051 0.5332,0.398438 0.18442,0.124387 0.37571,0.23918 0.57227,0.345703 0.19655,0.106522 0.39793,0.203504 0.60547,0.291015 0.20754,0.08751 0.42129,0.165069 0.63867,0.232422 0.21738,0.06735 0.43994,0.125826 0.66601,0.171875 0.22608,0.04605 0.45584,0.07992 0.68946,0.103516 0.23362,0.0236 0.47092,0.03516 0.71094,0.03516 0.24002,0 0.47731,-0.01156 0.71093,-0.03516 0.23362,-0.0236 0.46338,-0.05747 0.68946,-0.103516 0.22607,-0.04605 0.44863,-0.104521 0.66601,-0.171875 0.21738,-0.06735 0.42918,-0.14491 0.63672,-0.232422 0.20754,-0.08751 0.40891,-0.184493 0.60547,-0.291015 0.19655,-0.106523 0.38784,-0.221316 0.57226,-0.345703 0.18442,-0.124387 0.36207,-0.257333 0.53321,-0.398438 0.17114,-0.141104 0.33547,-0.29059 0.49219,-0.447265 0.15671,-0.156676 0.30612,-0.321088 0.44726,-0.492188 0.14114,-0.1711 0.27402,-0.348825 0.39844,-0.533203 0.12441,-0.184378 0.24111,-0.375757 0.34765,-0.572266 0.10655,-0.196508 0.20349,-0.397976 0.29102,-0.605468 0.0875,-0.207493 0.16505,-0.421342 0.23242,-0.638672 0.0674,-0.217331 0.12386,-0.438042 0.16992,-0.664063 0.0461,-0.226021 0.0819,-0.457841 0.10547,-0.691406 0.0236,-0.233565 0.0352,-0.469022 0.0352,-0.708984 0,-0.239963 -0.0115,-0.477373 -0.0352,-0.710938 -0.0236,-0.233565 -0.0594,-0.463432 -0.10547,-0.689453 -0.0461,-0.226021 -0.10255,-0.448685 -0.16992,-0.666016 -0.0674,-0.21733 -0.14489,-0.429226 -0.23242,-0.636718 -0.0875,-0.207493 -0.18447,-0.410914 -0.29102,-0.607422 -0.10654,-0.196509 -0.22324,-0.385935 -0.34765,-0.570313 -0.12442,-0.184377 -0.2573,-0.364056 -0.39844,-0.535156 -0.14114,-0.1711 -0.29055,-0.335512 -0.44726,-0.492188 -0.15672,-0.156675 -0.32105,-0.304207 -0.49219,-0.445312 -0.17114,-0.141105 -0.34879,-0.27405 -0.53321,-0.398438 -0.18442,-0.124387 -0.37571,-0.241133 -0.57226,-0.347656 -0.19656,-0.106522 -0.39793,-0.203504 -0.60547,-0.291015 -0.20754,-0.08751 -0.41934,-0.165068 -0.63672,-0.232422 -0.21738,-0.06735 -0.43994,-0.123873 -0.66601,-0.169922 -0.22608,-0.04605 -0.45584,-0.08187 -0.68946,-0.105469 -0.23362,-0.0236 -0.47091,-0.03516 -0.71093,-0.03516 z"
       style="fill:#ff0000;stroke-width:0.264583"
       id="path25" />
    <path
       d="m -38.980439,36.060861 c -0.19514,0 -0.38461,0.01925 -0.56836,0.05664 -0.18376,0.03739 -0.36065,0.09104 -0.5293,0.16211 -0.16865,0.07106 -0.32868,0.15874 -0.47852,0.259765 -0.14983,0.101026 -0.29067,0.216481 -0.41796,0.34375 -0.1273,0.12727 -0.24075,0.266218 -0.3418,0.416016 -0.10105,0.149798 -0.18868,0.309905 -0.25977,0.478516 -0.0711,0.16861 -0.12666,0.345589 -0.16406,0.529296 -0.0374,0.183708 -0.0566,0.375224 -0.0566,0.570313 0,0.19509 0.0192,0.384651 0.0566,0.568359 0.0374,0.183709 0.093,0.360687 0.16406,0.529297 0.0711,0.168611 0.15872,0.328718 0.25977,0.478516 0.10105,0.149797 0.2145,0.288747 0.3418,0.416015 0.12729,0.127269 0.26813,0.242726 0.41796,0.34375 0.14984,0.101025 0.30987,0.188701 0.47852,0.259766 0.16865,0.07106 0.34554,0.126672 0.5293,0.164063 0.18375,0.03739 0.37322,0.05664 0.56836,0.05664 0.19513,0 0.38656,-0.01925 0.57031,-0.05664 0.18375,-0.03739 0.36065,-0.093 0.5293,-0.164063 0.16865,-0.07106 0.32868,-0.158741 0.47851,-0.259766 0.14983,-0.101024 0.28872,-0.216481 0.41602,-0.34375 0.1273,-0.127268 0.2427,-0.266218 0.34375,-0.416015 0.10105,-0.149798 0.18868,-0.309905 0.25976,-0.478516 0.0711,-0.16861 0.12667,-0.345588 0.16407,-0.529297 0.0374,-0.183708 0.0566,-0.373269 0.0566,-0.568359 0,-0.195089 -0.0192,-0.386605 -0.0566,-0.570313 -0.0374,-0.183707 -0.093,-0.360686 -0.16407,-0.529296 -0.0711,-0.168611 -0.15871,-0.328718 -0.25976,-0.478516 -0.10105,-0.149798 -0.21645,-0.288746 -0.34375,-0.416016 -0.1273,-0.127269 -0.26619,-0.242724 -0.41602,-0.34375 -0.14983,-0.101025 -0.30986,-0.1887 -0.47851,-0.259765 -0.16865,-0.07107 -0.34555,-0.124719 -0.5293,-0.16211 -0.18375,-0.03739 -0.37518,-0.05664 -0.57031,-0.05664 z"
       style="fill:#ff0000;stroke-width:0.264583"
       id="path24" />
    <path
       d="m -50.474596,10.987063 c -0.2537,0 -0.50076,0.02502 -0.74024,0.07422 -0.23948,0.0492 -0.47114,0.121449 -0.6914,0.214844 -0.22027,0.09339 -0.42895,0.209201 -0.625,0.341797 -0.19605,0.132595 -0.37809,0.282419 -0.54493,0.449218 -0.16683,0.166799 -0.31854,0.348918 -0.45117,0.544922 -0.13262,0.196005 -0.24643,0.40674 -0.33984,0.626953 -0.0934,0.220213 -0.16759,0.45003 -0.2168,0.689453 -0.0492,0.239424 -0.0742,0.488551 -0.0742,0.742188 0,0.253638 0.025,0.50081 0.0742,0.740234 0.0492,0.239425 0.12338,0.471193 0.2168,0.691407 0.0934,0.220213 0.20722,0.428995 0.33984,0.625 0.13263,0.196004 0.28434,0.378123 0.45117,0.544921 0.16684,0.166799 0.34888,0.318577 0.54493,0.451172 0.19605,0.132595 0.40473,0.24645 0.625,0.339844 0.22026,0.09339 0.45192,0.165648 0.6914,0.214844 0.23948,0.0492 0.48654,0.07617 0.74024,0.07617 0.25369,0 0.5027,-0.02698 0.74218,-0.07617 0.23948,-0.0492 0.46919,-0.12145 0.68946,-0.214844 0.22026,-0.09339 0.4309,-0.207249 0.62695,-0.339844 0.19605,-0.132595 0.37808,-0.284373 0.54492,-0.451172 0.16684,-0.166798 0.31855,-0.348917 0.45117,-0.544921 0.13263,-0.196005 0.24643,-0.404787 0.33985,-0.625 0.0934,-0.220214 0.16563,-0.451982 0.21484,-0.691407 0.0492,-0.239424 0.0762,-0.486596 0.0762,-0.740234 0,-0.253637 -0.027,-0.502764 -0.0762,-0.742188 -0.0492,-0.239423 -0.12143,-0.46924 -0.21484,-0.689453 -0.0934,-0.220213 -0.20722,-0.430948 -0.33985,-0.626953 -0.13262,-0.196004 -0.28433,-0.378123 -0.45117,-0.544922 -0.16684,-0.166799 -0.34887,-0.316623 -0.54492,-0.449218 -0.19605,-0.132596 -0.40669,-0.248403 -0.62695,-0.341797 -0.22027,-0.0934 -0.44998,-0.165648 -0.68946,-0.214844 -0.23948,-0.0492 -0.48849,-0.07422 -0.74218,-0.07422 z m 0,0.867188 c 0.19513,0 0.38656,0.01925 0.57031,0.05664 0.18375,0.03739 0.36065,0.09104 0.5293,0.16211 0.16865,0.07106 0.32868,0.15874 0.47851,0.259765 0.14983,0.101026 0.28872,0.216481 0.41602,0.34375 0.1273,0.12727 0.2427,0.266218 0.34375,0.416016 0.10105,0.149798 0.18868,0.309905 0.25976,0.478516 0.0711,0.16861 0.12667,0.345589 0.16407,0.529296 0.0374,0.183708 0.0566,0.375224 0.0566,0.570313 0,0.19509 -0.0192,0.384651 -0.0566,0.568359 -0.0374,0.183709 -0.093,0.360687 -0.16407,0.529297 -0.0711,0.168611 -0.15871,0.328718 -0.25976,0.478516 -0.10105,0.149797 -0.21645,0.288747 -0.34375,0.416015 -0.1273,0.127269 -0.26619,0.242726 -0.41602,0.34375 -0.14983,0.101025 -0.30986,0.188701 -0.47851,0.259766 -0.16865,0.07106 -0.34555,0.126672 -0.5293,0.164063 -0.18375,0.03739 -0.37518,0.05664 -0.57031,0.05664 -0.19514,0 -0.38461,-0.01925 -0.56836,-0.05664 -0.18376,-0.03739 -0.36065,-0.093 -0.5293,-0.164063 -0.16865,-0.07106 -0.32868,-0.158741 -0.47852,-0.259766 -0.14983,-0.101024 -0.29067,-0.216481 -0.41796,-0.34375 -0.1273,-0.127268 -0.24075,-0.266218 -0.3418,-0.416015 -0.10105,-0.149798 -0.18868,-0.309905 -0.25977,-0.478516 -0.0711,-0.16861 -0.12666,-0.345588 -0.16406,-0.529297 -0.0374,-0.183708 -0.0566,-0.373269 -0.0566,-0.568359 0,-0.195089 0.0192,-0.386605 0.0566,-0.570313 0.0374,-0.183707 0.093,-0.360686 0.16406,-0.529296 0.0711,-0.168611 0.15872,-0.328718 0.25977,-0.478516 0.10105,-0.149798 0.2145,-0.288746 0.3418,-0.416016 0.12729,-0.127269 0.26813,-0.242724 0.41796,-0.34375 0.14984,-0.101025 0.30987,-0.1887 0.47852,-0.259765 0.16865,-0.07107 0.34554,-0.124719 0.5293,-0.16211 0.18375,-0.03739 0.37322,-0.05664 0.56836,-0.05664 z"
       style="fill:#ff0000;stroke-width:0.264583"
       id="path22" />
    <path
       d="m -46.903089,24.73235 c -0.17254,0 -0.34379,0.0084 -0.51172,0.02539 -0.16793,0.01696 -0.33359,0.04113 -0.4961,0.07422 -0.1625,0.03309 -0.32226,0.07464 -0.47851,0.123047 -0.15625,0.0484 -0.30981,0.105076 -0.45899,0.167969 -0.14917,0.06289 -0.29427,0.132428 -0.43554,0.208984 -0.14128,0.07656 -0.27761,0.158651 -0.41016,0.248047 -0.13255,0.0894 -0.25981,0.185697 -0.38281,0.287109 -0.12301,0.101413 -0.24284,0.209661 -0.35547,0.322266 -0.11263,0.112605 -0.21888,0.230541 -0.32031,0.353516 -0.10144,0.122974 -0.1977,0.250292 -0.28711,0.382812 -0.0894,0.13252 -0.17148,0.268915 -0.24805,0.410156 -0.0766,0.141242 -0.14803,0.286408 -0.21094,0.435547 -0.0629,0.14914 -0.1176,0.302771 -0.16601,0.458985 -0.0484,0.156213 -0.0899,0.316051 -0.12305,0.478515 -0.0331,0.162464 -0.0573,0.328203 -0.0742,0.496094 -0.017,0.167891 -0.0273,0.337271 -0.0273,0.509766 0,0.172494 0.0104,0.343827 0.0273,0.511718 0.017,0.167891 0.0411,0.33363 0.0742,0.496094 0.0331,0.162464 0.0746,0.320349 0.12305,0.476563 0.0484,0.156213 0.10311,0.309845 0.16601,0.458984 0.0629,0.149139 0.13437,0.294305 0.21094,0.435547 0.0766,0.141241 0.15863,0.277636 0.24805,0.410156 0.0894,0.13252 0.18567,0.261791 0.28711,0.384766 0.10143,0.122974 0.20768,0.24091 0.32031,0.353515 0.11263,0.112606 0.23246,0.2189 0.35547,0.320313 0.123,0.101413 0.25026,0.197713 0.38281,0.287109 0.13255,0.0894 0.26888,0.173444 0.41016,0.25 0.14127,0.07656 0.28637,0.146092 0.43554,0.208985 0.14918,0.06289 0.30274,0.11761 0.45899,0.166015 0.15625,0.0484 0.31601,0.08995 0.47851,0.123047 0.16251,0.03309 0.32817,0.05921 0.4961,0.07617 0.16793,0.01696 0.33918,0.02539 0.51172,0.02539 0.17253,0 0.34183,-0.0084 0.50976,-0.02539 0.16793,-0.01696 0.33359,-0.04308 0.4961,-0.07617 0.1625,-0.03309 0.32226,-0.07464 0.47851,-0.123047 0.15625,-0.0484 0.30981,-0.103123 0.45899,-0.166015 0.14917,-0.06289 0.29427,-0.132429 0.43554,-0.208985 0.14128,-0.07656 0.27761,-0.160603 0.41016,-0.25 0.13255,-0.0894 0.25981,-0.185696 0.38281,-0.287109 0.123,-0.101413 0.24284,-0.207707 0.35547,-0.320313 0.11263,-0.112605 0.21888,-0.230541 0.32031,-0.353515 0.10144,-0.122975 0.1977,-0.252246 0.28711,-0.384766 0.0894,-0.13252 0.17148,-0.268915 0.24805,-0.410156 0.0766,-0.141242 0.14803,-0.286408 0.21094,-0.435547 0.0629,-0.149139 0.1176,-0.302771 0.16601,-0.458984 0.0484,-0.156214 0.09,-0.314099 0.12305,-0.476563 0.0331,-0.162464 0.0573,-0.328203 0.0742,-0.496094 0.017,-0.167891 0.0273,-0.339224 0.0273,-0.511718 0,-0.172495 -0.0104,-0.341875 -0.0273,-0.509766 -0.017,-0.167891 -0.0411,-0.33363 -0.0742,-0.496094 -0.0331,-0.162464 -0.0746,-0.322302 -0.12305,-0.478515 -0.0484,-0.156214 -0.10311,-0.309845 -0.16601,-0.458985 -0.0629,-0.149139 -0.13437,-0.294305 -0.21094,-0.435547 -0.0766,-0.141241 -0.15863,-0.277636 -0.24805,-0.410156 -0.0894,-0.13252 -0.18567,-0.259838 -0.28711,-0.382812 -0.10143,-0.122975 -0.20768,-0.240911 -0.32031,-0.353516 -0.11263,-0.112605 -0.23247,-0.220853 -0.35547,-0.322266 -0.123,-0.101412 -0.25026,-0.197713 -0.38281,-0.287109 -0.13255,-0.0894 -0.26888,-0.171491 -0.41016,-0.248047 -0.14127,-0.07656 -0.28637,-0.146092 -0.43554,-0.208984 -0.14918,-0.06289 -0.30274,-0.119564 -0.45899,-0.167969 -0.15625,-0.0484 -0.31601,-0.08995 -0.47851,-0.123047 -0.16251,-0.03309 -0.32817,-0.05726 -0.4961,-0.07422 -0.16793,-0.01696 -0.33723,-0.02539 -0.50976,-0.02539 z"
       style="fill:#ff0000;stroke-width:0.264583"
       id="path20" />
    <path
       d="m -43.794509,-3.5811152 c -0.21646,0 -0.43167,0.0117 -0.64258,0.0332 -0.21091,0.02151 -0.41875,0.05376 -0.62305,0.0957 -0.2043,0.04195 -0.40494,0.09297 -0.60156,0.154297 -0.19663,0.06133 -0.38829,0.131298 -0.57617,0.210937 -0.18789,0.07964 -0.3727,0.168737 -0.55078,0.265625 -0.17809,0.09689 -0.35037,0.203332 -0.51758,0.316406 -0.16722,0.113074 -0.32909,0.233133 -0.48438,0.361328 -0.15528,0.128196 -0.30302,0.263998 -0.44531,0.40625 -0.14229,0.142253 -0.27802,0.290067 -0.40625,0.445313 -0.12823,0.155246 -0.25018,0.3172 -0.36328,0.484375 -0.1131,0.167175 -0.21754,0.339538 -0.31445,0.517578 -0.0969,0.17804 -0.18597,0.36294 -0.26563,0.550781 -0.0797,0.187842 -0.1496,0.379594 -0.21094,0.576172 -0.0613,0.196579 -0.11429,0.397312 -0.15625,0.601563 -0.0419,0.204251 -0.0742,0.412187 -0.0957,0.623047 -0.0215,0.21086 -0.0312,0.42422 -0.0312,0.640625 0,0.216404 0.01,0.429765 0.0312,0.640625 0.0215,0.210859 0.0538,0.418796 0.0957,0.623046 0.042,0.204251 0.0949,0.404985 0.15625,0.601563 0.0613,0.196578 0.13128,0.390284 0.21094,0.578125 0.0797,0.187841 0.16871,0.370788 0.26563,0.548828 0.0969,0.17804 0.20135,0.350403 0.31445,0.517578 0.1131,0.167176 0.23505,0.329129 0.36328,0.484375 0.12823,0.1552458 0.26396,0.3050128 0.40625,0.4472658 0.14229,0.142253 0.29003,0.276101 0.44531,0.404297 0.15529,0.128195 0.31716,0.250207 0.48438,0.363281 0.16721,0.113074 0.33949,0.217564 0.51758,0.314453 0.17808,0.09689 0.36289,0.185986 0.55078,0.265625 0.18788,0.07964 0.37954,0.149612 0.57617,0.210938 0.19662,0.06133 0.39726,0.114302 0.60156,0.15625 0.2043,0.04195 0.41214,0.0742 0.62305,0.0957 0.21091,0.02151 0.42612,0.03125 0.64258,0.03125 0.21645,0 0.42971,-0.0097 0.64062,-0.03125 0.21091,-0.02151 0.41875,-0.05376 0.62305,-0.0957 0.2043,-0.04195 0.40494,-0.09492 0.60156,-0.15625 0.19663,-0.06133 0.38829,-0.131299 0.57617,-0.210938 0.18789,-0.07964 0.3727,-0.168736 0.55078,-0.265625 0.17809,-0.09689 0.35037,-0.201379 0.51758,-0.314453 0.16722,-0.113074 0.32909,-0.235086 0.48438,-0.363281 0.15528,-0.128196 0.30302,-0.262044 0.44531,-0.404297 0.14229,-0.142253 0.27802,-0.29202 0.40625,-0.4472658 0.12822,-0.155246 0.25018,-0.317199 0.36328,-0.484375 0.1131,-0.167175 0.21754,-0.339538 0.31445,-0.517578 0.0969,-0.17804 0.18597,-0.360987 0.26563,-0.548828 0.0797,-0.187841 0.1496,-0.381547 0.21094,-0.578125 0.0613,-0.196578 0.11429,-0.397312 0.15625,-0.601563 0.042,-0.20425 0.0742,-0.412187 0.0957,-0.623046 0.0215,-0.21086 0.0312,-0.424221 0.0312,-0.640625 0,-0.216405 -0.01,-0.429765 -0.0312,-0.640625 -0.0215,-0.21086 -0.0538,-0.418796 -0.0957,-0.623047 -0.042,-0.204251 -0.0949,-0.404984 -0.15625,-0.601563 -0.0613,-0.196578 -0.13128,-0.38833 -0.21094,-0.576172 -0.0797,-0.187841 -0.16872,-0.372741 -0.26563,-0.550781 -0.0969,-0.17804 -0.20135,-0.350403 -0.31445,-0.517578 -0.1131,-0.167175 -0.23506,-0.329129 -0.36328,-0.484375 -0.12823,-0.155246 -0.26396,-0.30306 -0.40625,-0.445313 -0.14229,-0.142252 -0.29003,-0.278054 -0.44531,-0.40625 -0.15529,-0.128195 -0.31716,-0.248254 -0.48438,-0.361328 -0.16721,-0.113074 -0.33949,-0.219517 -0.51758,-0.316406 -0.17808,-0.09689 -0.36289,-0.185986 -0.55078,-0.265625 -0.18788,-0.07964 -0.37954,-0.149612 -0.57617,-0.210937 -0.19662,-0.06133 -0.39726,-0.11235 -0.60156,-0.154297 -0.2043,-0.04195 -0.41214,-0.0742 -0.62305,-0.0957 -0.21091,-0.02151 -0.42417,-0.0332 -0.64062,-0.0332 z m 0,1.300782 c 0.17253,0 0.34183,0.0084 0.50976,0.02539 0.16793,0.01696 0.33359,0.04113 0.4961,0.07422 0.1625,0.03309 0.32226,0.07464 0.47851,0.123047 0.15625,0.0484 0.30981,0.105076 0.45899,0.167969 0.14917,0.06289 0.29427,0.132428 0.43554,0.208984 0.14128,0.07656 0.27761,0.158651 0.41016,0.248047 0.13255,0.0894 0.25981,0.185697 0.38281,0.287109 0.123,0.101413 0.24284,0.20966096 0.35547,0.32226596 0.11263,0.112605 0.21888,0.230541 0.32031,0.353516 0.10144,0.122974 0.1977,0.250292 0.28711,0.382812 0.0894,0.13252 0.17148,0.268915 0.24805,0.410156 0.0766,0.141242 0.14803,0.286408 0.21094,0.435547 0.0629,0.14914 0.1176,0.30277104 0.16601,0.45898504 0.0484,0.156213 0.09,0.316051 0.12305,0.478515 0.0331,0.162464 0.0573,0.328203 0.0742,0.496094 0.017,0.167891 0.0273,0.337271 0.0273,0.509766 0,0.172494 -0.0104,0.343827 -0.0273,0.511718 -0.017,0.167891 -0.0411,0.33363 -0.0742,0.496094 -0.0331,0.162464 -0.0746,0.320349 -0.12305,0.476563 -0.0484,0.156213 -0.10311,0.309845 -0.16601,0.458984 -0.0629,0.149139 -0.13437,0.294305 -0.21094,0.435547 -0.0766,0.141241 -0.15863,0.277636 -0.24805,0.410156 -0.0894,0.13252 -0.18567,0.261791 -0.28711,0.384766 -0.10143,0.122974 -0.20768,0.24091 -0.32031,0.353515 -0.11263,0.112606 -0.23247,0.2189 -0.35547,0.320313 -0.123,0.101413 -0.25026,0.197713 -0.38281,0.2871088 -0.13255,0.0894 -0.26888,0.173444 -0.41016,0.25 -0.14127,0.07656 -0.28637,0.146092 -0.43554,0.208985 -0.14918,0.06289 -0.30274,0.11761 -0.45899,0.166015 -0.15625,0.0484 -0.31601,0.08995 -0.47851,0.123047 -0.16251,0.03309 -0.32817,0.05921 -0.4961,0.07617 -0.16793,0.01696 -0.33723,0.02539 -0.50976,0.02539 -0.17254,0 -0.34379,-0.0084 -0.51172,-0.02539 -0.16793,-0.01696 -0.33359,-0.04308 -0.4961,-0.07617 -0.1625,-0.03309 -0.32226,-0.07464 -0.47851,-0.123047 -0.15625,-0.0484 -0.30981,-0.103123 -0.45899,-0.166015 -0.14917,-0.06289 -0.29427,-0.132429 -0.43554,-0.208985 -0.14128,-0.07656 -0.27761,-0.160603 -0.41016,-0.25 -0.13255,-0.0894 -0.25981,-0.1856958 -0.38281,-0.2871088 -0.12301,-0.101413 -0.24284,-0.207707 -0.35547,-0.320313 -0.11263,-0.112605 -0.21888,-0.230541 -0.32031,-0.353515 -0.10144,-0.122975 -0.1977,-0.252246 -0.28711,-0.384766 -0.0894,-0.13252 -0.17148,-0.268915 -0.24805,-0.410156 -0.0766,-0.141242 -0.14803,-0.286408 -0.21094,-0.435547 -0.0629,-0.149139 -0.1176,-0.302771 -0.16601,-0.458984 -0.0484,-0.156214 -0.0899,-0.314099 -0.12305,-0.476563 -0.0331,-0.162464 -0.0573,-0.328203 -0.0742,-0.496094 -0.017,-0.167891 -0.0273,-0.339224 -0.0273,-0.511718 0,-0.172495 0.0104,-0.341875 0.0273,-0.509766 0.017,-0.167891 0.0411,-0.33363 0.0742,-0.496094 0.0331,-0.162464 0.0746,-0.322302 0.12305,-0.478515 0.0484,-0.156214 0.10311,-0.30984504 0.16601,-0.45898504 0.0629,-0.149139 0.13437,-0.294305 0.21094,-0.435547 0.0766,-0.141241 0.15863,-0.277636 0.24805,-0.410156 0.0894,-0.13252 0.18567,-0.259838 0.28711,-0.382812 0.10143,-0.122975 0.20768,-0.240911 0.32031,-0.353516 0.11263,-0.112605 0.23246,-0.22085296 0.35547,-0.32226596 0.123,-0.101412 0.25026,-0.197713 0.38281,-0.287109 0.13255,-0.0894 0.26888,-0.171491 0.41016,-0.248047 0.14127,-0.07656 0.28637,-0.146092 0.43554,-0.208984 0.14918,-0.06289 0.30274,-0.119564 0.45899,-0.167969 0.15625,-0.0484 0.31601,-0.08995 0.47851,-0.123047 0.16251,-0.03309 0.32817,-0.05726 0.4961,-0.07422 0.16793,-0.01696 0.33918,-0.02539 0.51172,-0.02539 z"
       style="fill:#ff0000;stroke-width:0.264583"
       id="path19" />
    <path
       d="m -62.828076,-6.3449638 c -0.29858,0 -0.59384,0.01526 -0.88476,0.04492 -0.29093,0.02966 -0.57758,0.07301 -0.85938,0.130859 -0.2818,0.05785 -0.55886,0.130263 -0.83008,0.214844 -0.27121,0.08458 -0.53576,0.181176 -0.79492,0.291016 -0.25916,0.109839 -0.51218,0.2316021 -0.75781,0.3652341 -0.24563,0.133632 -0.48421,0.27959 -0.71485,0.435547 -0.23064,0.155956 -0.45379,0.323185 -0.66796,0.5 -0.21418,0.176814 -0.41899,0.362388 -0.61524,0.558593 -0.19625,0.196205 -0.38369,0.4030589 -0.56055,0.6171879 -0.17685,0.214128 -0.344,0.435431 -0.5,0.666015 -0.15599,0.230585 -0.29993,0.46927 -0.43359,0.714844 -0.13366,0.245574 -0.25732,0.498717 -0.36719,0.757813 -0.10986,0.259095 -0.20641,0.525724 -0.29101,0.796875 -0.0846,0.27115 -0.15698,0.546387 -0.21485,0.828125 -0.0579,0.281738 -0.10119,0.568516 -0.13086,0.859375 -0.0297,0.290858 -0.0449,0.586253 -0.0449,0.884765 0,0.298512 0.0153,0.593907 0.0449,0.884766 0.0297,0.290858 0.073,0.577637 0.13086,0.859375 0.0579,0.281738 0.13025,0.558928 0.21485,0.830078 0.0846,0.27115 0.18115,0.535826 0.29101,0.7949218 0.10987,0.259096 0.23353,0.512239 0.36719,0.757812 0.13366,0.245574 0.2776,0.484259 0.43359,0.714844 0.156,0.230585 0.32315,0.451887 0.5,0.666016 0.17686,0.214128 0.3643,0.420982 0.56055,0.617187 0.19625,0.196205 0.40106,0.381779 0.61524,0.558594 0.21417,0.176815 0.43732,0.344043 0.66796,0.5 0.23064,0.155957 0.46922,0.301915 0.71485,0.435547 0.24563,0.133632 0.49865,0.255394 0.75781,0.365234 0.25916,0.10984 0.52371,0.208388 0.79492,0.292969 0.27122,0.08458 0.54828,0.155036 0.83008,0.212891 0.2818,0.05785 0.56845,0.101198 0.85938,0.130859 0.29092,0.02966 0.58618,0.04492 0.88476,0.04492 0.29858,0 0.59384,-0.01526 0.88477,-0.04492 0.29092,-0.02966 0.57757,-0.073 0.85937,-0.130859 0.28181,-0.05785 0.55887,-0.12831 0.83008,-0.212891 0.27121,-0.08458 0.53772,-0.183129 0.79687,-0.292969 0.25916,-0.10984 0.51023,-0.231602 0.75586,-0.365234 0.24563,-0.133632 0.48421,-0.27959 0.71485,-0.435547 0.23064,-0.155957 0.45379,-0.323185 0.66797,-0.5 0.21417,-0.176815 0.42093,-0.362389 0.61718,-0.558594 0.19625,-0.196205 0.38174,-0.403059 0.5586,-0.617187 0.17685,-0.214129 0.344,-0.435431 0.5,-0.666016 0.15599,-0.230585 0.30188,-0.46927 0.43554,-0.714844 0.13367,-0.245573 0.25537,-0.498716 0.36524,-0.757812 0.10986,-0.2590958 0.20837,-0.5237718 0.29297,-0.7949218 0.0846,-0.27115 0.15502,-0.54834 0.21289,-0.830078 0.0579,-0.281738 0.10314,-0.568517 0.13281,-0.859375 0.0297,-0.290859 0.0449,-0.586254 0.0449,-0.884766 0,-0.298512 -0.0153,-0.593907 -0.0449,-0.884765 -0.0297,-0.290859 -0.0749,-0.577637 -0.13281,-0.859375 -0.0579,-0.281738 -0.12829,-0.556975 -0.21289,-0.828125 -0.0846,-0.271151 -0.18311,-0.53778 -0.29297,-0.796875 -0.10987,-0.259096 -0.23157,-0.512239 -0.36524,-0.757813 -0.13366,-0.245574 -0.27955,-0.484259 -0.43554,-0.714844 -0.156,-0.230584 -0.32315,-0.451887 -0.5,-0.666015 -0.17686,-0.214129 -0.36235,-0.4209829 -0.5586,-0.6171879 -0.19625,-0.196205 -0.40301,-0.381779 -0.61718,-0.558593 -0.21418,-0.176815 -0.43733,-0.344044 -0.66797,-0.5 -0.23064,-0.155957 -0.46922,-0.301915 -0.71485,-0.435547 -0.24563,-0.133632 -0.4967,-0.2553951 -0.75586,-0.3652341 -0.25915,-0.10984 -0.52566,-0.206435 -0.79687,-0.291016 -0.27121,-0.08458 -0.54827,-0.15699 -0.83008,-0.214844 -0.2818,-0.05785 -0.56845,-0.101198 -0.85937,-0.130859 -0.29093,-0.02966 -0.58619,-0.04492 -0.88477,-0.04492 z m 0,1.7324221 c 0.24002,0 0.47732,0.01351 0.71094,0.03711 0.23362,0.0236 0.46338,0.05747 0.68945,0.103516 0.22608,0.04605 0.44864,0.102568 0.66602,0.169921 0.21738,0.06735 0.42917,0.144911 0.63672,0.232422 0.20754,0.08751 0.41086,0.186447 0.60742,0.292969 0.19655,0.106522 0.38784,0.221317 0.57226,0.3457029 0.18442,0.124387 0.36207,0.257333 0.53321,0.398438 0.17114,0.141104 0.33547,0.29059 0.49218,0.447265 0.15672,0.156676 0.30613,0.321088 0.44727,0.492188 0.14114,0.1711 0.27402,0.348825 0.39844,0.533203 0.12441,0.184377 0.23915,0.375757 0.3457,0.572266 0.10655,0.196508 0.20544,0.397975 0.29297,0.605468 0.0875,0.207493 0.16505,0.421341 0.23242,0.638672 0.0674,0.217331 0.12386,0.438041 0.16992,0.664063 0.0461,0.226022 0.0819,0.455886 0.10547,0.689453 0.0236,0.233566 0.0352,0.470973 0.0352,0.710937 0,0.239965 -0.0116,0.477371 -0.0352,0.710938 -0.0236,0.233566 -0.0594,0.463431 -0.10547,0.689453 -0.0461,0.226022 -0.10255,0.448685 -0.16992,0.666015 -0.0674,0.217331 -0.14489,0.429226 -0.23242,0.636719 -0.0875,0.207493 -0.18642,0.410913 -0.29297,0.6074218 -0.10655,0.196509 -0.22129,0.385935 -0.3457,0.570313 -0.12442,0.184377 -0.2573,0.362103 -0.39844,0.533203 -0.14114,0.1711 -0.29055,0.335512 -0.44727,0.492187 -0.15671,0.156676 -0.32104,0.306162 -0.49218,0.447266 -0.17114,0.141104 -0.34879,0.274051 -0.53321,0.398437 -0.18442,0.124387 -0.37571,0.241135 -0.57226,0.347657 -0.19656,0.106522 -0.39988,0.203504 -0.60742,0.291015 -0.20755,0.08751 -0.41934,0.165069 -0.63672,0.232422 -0.21738,0.06735 -0.43994,0.123873 -0.66602,0.169922 -0.22607,0.04605 -0.45583,0.08187 -0.68945,0.105469 -0.23362,0.0236 -0.47092,0.03516 -0.71094,0.03516 -0.24002,0 -0.47732,-0.01156 -0.71094,-0.03516 -0.23362,-0.0236 -0.46337,-0.05942 -0.68945,-0.105469 -0.22608,-0.04605 -0.44863,-0.102569 -0.66602,-0.169922 -0.21738,-0.06735 -0.42917,-0.144911 -0.63671,-0.232422 -0.20755,-0.08751 -0.41087,-0.184493 -0.60743,-0.291015 -0.19655,-0.106522 -0.38589,-0.22327 -0.57031,-0.347657 -0.18442,-0.124386 -0.36401,-0.257333 -0.53515,-0.398437 -0.17115,-0.141104 -0.33548,-0.29059 -0.49219,-0.447266 -0.15671,-0.156675 -0.30418,-0.321087 -0.44531,-0.492187 -0.14114,-0.1711 -0.27598,-0.348826 -0.4004,-0.533203 -0.12441,-0.184378 -0.23915,-0.373804 -0.3457,-0.570313 -0.10655,-0.1965088 -0.20348,-0.3999288 -0.29101,-0.6074218 -0.0875,-0.207493 -0.16506,-0.419388 -0.23243,-0.636719 -0.0674,-0.21733 -0.12581,-0.439993 -0.17187,-0.666015 -0.0461,-0.226022 -0.0799,-0.455887 -0.10352,-0.689453 -0.0236,-0.233567 -0.0371,-0.470973 -0.0371,-0.710938 0,-0.239964 0.0135,-0.477371 0.0371,-0.710937 0.0236,-0.233567 0.0575,-0.463431 0.10352,-0.689453 0.0461,-0.226022 0.1045,-0.446732 0.17187,-0.664063 0.0674,-0.217331 0.14489,-0.431179 0.23243,-0.638672 0.0875,-0.207493 0.18446,-0.40896 0.29101,-0.605468 0.10655,-0.196509 0.22129,-0.387889 0.3457,-0.572266 0.12442,-0.184378 0.25926,-0.362103 0.4004,-0.533203 0.14113,-0.1711 0.2886,-0.335512 0.44531,-0.492188 0.15671,-0.156675 0.32104,-0.306161 0.49219,-0.447265 0.17114,-0.141105 0.35073,-0.274051 0.53515,-0.398438 0.18442,-0.124386 0.37376,-0.239181 0.57031,-0.345703 0.19656,-0.106522 0.39988,-0.205458 0.60743,-0.292969 0.20754,-0.08751 0.41933,-0.165068 0.63671,-0.232422 0.21739,-0.06735 0.43994,-0.1238729 0.66602,-0.169921 0.22608,-0.04605 0.45583,-0.07992 0.68945,-0.103516 0.23362,-0.0236 0.47092,-0.03711 0.71094,-0.03711 z"
       style="fill:#ff0000;stroke-width:0.264583"
       id="path17" />
    <g
       id="g44">
      <g
         id="g41"
         transform="matrix(0.38050559,0,0,0.38050559,-74.380361,33.592665)"
         style="display:inline;stroke-width:2.62808">
        <circle
           style="display:inline;fill:#99cc33;stroke-width:3.94212"
           id="path40"
           cx="-172.09833"
           cy="21.928062"
           r="19.710617" />
        <path
           sodipodi:type="star"
           style="fill:#00cc00;stroke-width:3.94212"
           id="path41"
           inkscape:flatsided="false"
           sodipodi:sides="6"
           sodipodi:cx="-172.09833"
           sodipodi:cy="21.928062"
           sodipodi:r1="19.710617"
           sodipodi:r2="8.8697777"
           sodipodi:arg1="-1.5707963"
           sodipodi:arg2="-1.0471976"
           inkscape:rounded="3.0878078e-16"
           inkscape:randomized="-6.9388939e-18"
           d="m -172.09833,2.2174454 4.43489,12.0291636 12.63501,-2.173855 -8.20012,9.855308 8.20012,9.855309 -12.63501,-2.173856 -4.43489,12.029165 -4.43489,-12.029165 -12.635,2.173856 8.20011,-9.855308 -8.20011,-9.85531 12.635,2.173857 z" />
      </g>
      <g
         id="g42"
         transform="matrix(0,0.50734079,-0.50734079,0,-143.6186,120.04786)"
         style="stroke-width:1.97106">
        <circle
           style="display:inline;fill:#99cc33;stroke-width:2.95659"
           id="circle41"
           cx="-172.09833"
           cy="21.928062"
           r="19.710617" />
        <path
           sodipodi:type="star"
           style="fill:#00cc00;stroke-width:2.95659"
           id="path42"
           inkscape:flatsided="false"
           sodipodi:sides="6"
           sodipodi:cx="-172.09833"
           sodipodi:cy="21.928062"
           sodipodi:r1="19.710617"
           sodipodi:r2="8.8697777"
           sodipodi:arg1="-1.5707963"
           sodipodi:arg2="-1.0471976"
           inkscape:rounded="3.0878078e-16"
           inkscape:randomized="-6.9388939e-18"
           d="m -172.09833,2.2174454 4.43489,12.0291636 12.63501,-2.173855 -8.20012,9.855308 8.20012,9.855309 -12.63501,-2.173856 -4.43489,12.029165 -4.43489,-12.029165 -12.635,2.173856 8.20011,-9.855308 -8.20011,-9.85531 12.635,2.173857 z" />
      </g>
      <g
         id="g43"
         transform="matrix(0.24502678,-0.06565473,0.06565473,0.24502678,-110.46054,30.308479)"
         style="stroke-width:3.94212">
        <circle
           style="display:inline;fill:#99cc33;stroke-width:5.91318"
           id="circle43"
           cx="-172.09833"
           cy="21.928062"
           r="19.710617" />
        <path
           sodipodi:type="star"
           style="fill:#00cc00;stroke-width:5.91318"
           id="path43"
           inkscape:flatsided="false"
           sodipodi:sides="6"
           sodipodi:cx="-172.09833"
           sodipodi:cy="21.928062"
           sodipodi:r1="19.710617"
           sodipodi:r2="8.8697777"
           sodipodi:arg1="-1.5707963"
           sodipodi:arg2="-1.0471976"
           inkscape:rounded="3.0878078e-16"
           inkscape:randomized="-6.9388939e-18"
           d="m -172.09833,2.2174454 4.43489,12.0291636 12.63501,-2.173855 -8.20012,9.855308 8.20012,9.855309 -12.63501,-2.173856 -4.43489,12.029165 -4.43489,-12.029165 -12.635,2.173856 8.20011,-9.855308 -8.20011,-9.85531 12.635,2.173857 z" />
      </g>
    </g>
    <g
       id="moon-stars"
       style="fill:#ff0000;fill-opacity:1">
      <path
         id="moon-crescent"
         style=""
         d="M 50.000001,19.999999 A 30.000001,30.000001 0 0 0 20,50.000001 a 30.000001,30.000001 0 0 0 30.000001,30 30.000001,30.000001 0 0 0 29.999999,-30 30.000001,30.000001 0 0 0 -0.234377,-3.670673 23.076923,23.076923 0 0 1 -6.52464,13.065504 23.076923,23.076923 0 0 1 -32.635816,0 23.076923,23.076923 0 0 1 0,-32.635817 23.076923,23.076923 0 0 1 13.272842,-6.499399 30.000001,30.000001 0 0 0 -3.878008,-0.259617 z" />
      <g
         id="stars"
         transform="rotate(-75,-43.863155,-97.136116)"
         style="">
        <path
           id="star-m"
           transform="matrix(0.38050559,0,0,0.38050559,-74.380361,33.592665)"
           d="m -172.09833,2.2174454 4.43489,12.0291636 12.63501,-2.173855 -8.20012,9.855308 8.20012,9.855309 -12.63501,-2.173856 -4.43489,12.029165 -4.43489,-12.029165 -12.635,2.173856 8.20011,-9.855308 -8.20011,-9.85531 12.635,2.173857 z" />
        <path
           id="star-l"
           transform="matrix(0,0.50734079,-0.50734079,0,-143.6186,120.04786)"
           d="m -172.09833,2.2174454 4.43489,12.0291636 12.63501,-2.173855 -8.20012,9.855308 8.20012,9.855309 -12.63501,-2.173856 -4.43489,12.029165 -4.43489,-12.029165 -12.635,2.173856 8.20011,-9.855308 -8.20011,-9.85531 12.635,2.173857 z" />
        <path
           id="star-s"
           transform="matrix(0.24502678,-0.06565473,0.06565473,0.24502678,-110.46054,30.308479)"
           d="m -172.09833,2.2174454 4.43489,12.0291636 12.63501,-2.173855 -8.20012,9.855308 8.20012,9.855309 -12.63501,-2.173856 -4.43489,12.029165 -4.43489,-12.029165 -12.635,2.173856 8.20011,-9.855308 -8.20011,-9.85531 12.635,2.173857 z" />
      </g>
    </g>
  </g>
</svg>
