<?xml version="1.0" encoding="UTF-8" standalone="no"?>
<!-- Uploaded to: SVG Repo, www.svgrepo.com, Generator: SVG Repo Mixer Tools -->

<svg
   fill="#000000"
   width="100"
   height="100"
   viewBox="0 0 100 100"
   version="1.1"
   preserveAspectRatio="xMidYMid"
   id="svg1"
   sodipodi:docname="list-svgrepo-com.svg"
   inkscape:version="1.3 (0e150ed6c4, 2023-07-21)"
   xmlns:inkscape="http://www.inkscape.org/namespaces/inkscape"
   xmlns:sodipodi="http://sodipodi.sourceforge.net/DTD/sodipodi-0.dtd"
   xmlns="http://www.w3.org/2000/svg"
   xmlns:svg="http://www.w3.org/2000/svg"
   xmlns:rdf="http://www.w3.org/1999/02/22-rdf-syntax-ns#"
   xmlns:cc="http://creativecommons.org/ns#"
   xmlns:dc="http://purl.org/dc/elements/1.1/">
  <defs
     id="defs1" />
  <sodipodi:namedview
     id="namedview1"
     pagecolor="#505050"
     bordercolor="#eeeeee"
     borderopacity="1"
     inkscape:showpageshadow="0"
     inkscape:pageopacity="0"
     inkscape:pagecheckerboard="0"
     inkscape:deskcolor="#d1d1d1"
     inkscape:zoom="5.695"
     inkscape:cx="84.723442"
     inkscape:cy="77.875329"
     inkscape:window-width="3440"
     inkscape:window-height="1377"
     inkscape:window-x="-8"
     inkscape:window-y="-8"
     inkscape:window-maximized="1"
     inkscape:current-layer="svg1" />
  <title
     id="title1">list-solid</title>
  <path
     d="M 81.25,0 H 18.75 A 6.25,6.25 0 0 0 12.5,6.25 v 87.5 a 6.25,6.25 0 0 0 6.25,6.25 h 62.5 A 6.25,6.25 0 0 0 87.5,93.75 V 6.25 A 6.25,6.25 0 0 0 81.25,0 Z M 34.375,75 h -6.25 v -6.25 h 6.25 z m 0,-12.5 h -6.25 v -6.25 h 6.25 z m 0,-12.5 h -6.25 v -6.25 h 6.25 z m 0,-12.5 h -6.25 v -6.25 h 6.25 z m 0,-12.5 h -6.25 v -6.25 h 6.25 z m 37.5,50 h -31.25 v -6.25 h 31.25 z m 0,-12.5 h -31.25 v -6.25 h 31.25 z m 0,-12.5 h -31.25 v -6.25 h 31.25 z m 0,-12.5 h -31.25 v -6.25 h 31.25 z m 0,-12.5 h -31.25 v -6.25 h 31.25 z"
     class="clr-i-solid clr-i-solid-path-1"
     id="path1"
     style="stroke-width:1" />
  <metadata
     id="metadata1">
    <rdf:RDF>
      <cc:Work
         rdf:about="">
        <dc:title>list-solid</dc:title>
      </cc:Work>
    </rdf:RDF>
  </metadata>
</svg>
