<?xml version="1.0" encoding="UTF-8" standalone="no"?>
<!-- Created with Inkscape (http://www.inkscape.org/) -->

<svg
   width="100"
   height="100"
   viewBox="0 0 100 100"
   version="1.1"
   id="svg1"
   xml:space="preserve"
   inkscape:version="1.3 (0e150ed6c4, 2023-07-21)"
   sodipodi:docname="tag.svg"
   xmlns:inkscape="http://www.inkscape.org/namespaces/inkscape"
   xmlns:sodipodi="http://sodipodi.sourceforge.net/DTD/sodipodi-0.dtd"
   xmlns="http://www.w3.org/2000/svg"
   xmlns:svg="http://www.w3.org/2000/svg"><sodipodi:namedview
     id="namedview1"
     pagecolor="#505050"
     bordercolor="#eeeeee"
     borderopacity="1"
     inkscape:showpageshadow="0"
     inkscape:pageopacity="0"
     inkscape:pagecheckerboard="0"
     inkscape:deskcolor="#d1d1d1"
     inkscape:document-units="px"
     inkscape:zoom="4.0587261"
     inkscape:cx="-22.051254"
     inkscape:cy="40.529958"
     inkscape:window-width="3440"
     inkscape:window-height="1377"
     inkscape:window-x="-8"
     inkscape:window-y="-8"
     inkscape:window-maximized="1"
     inkscape:current-layer="layer1" /><defs
     id="defs1" /><g
     inkscape:label="Layer 1"
     inkscape:groupmode="layer"
     id="layer1"><path
       id="tag"
       style=""
       d="m 1.9478638,62.892033 c -2.597165,2.597159 -2.59713849,6.778891 0,9.376027 L 27.731936,98.052135 c 2.597145,2.597145 6.778865,2.597155 9.37603,0 L 98.052139,37.107963 c 2.597151,-2.597148 2.597151,-6.778883 0,-9.376028 l -3.516016,-3.51601 a 13.259705,13.259705 0 0 0 7e-6,-18.7520523 13.259705,13.259705 0 0 0 -18.752059,0 l -3.51601,-3.5160162 c -2.597139,-2.59713183 -6.77888,-2.59714509 -9.376027,0 z M 16.195026,65.052916 60.262351,20.985589 c 0.779146,-0.779146 2.033665,-0.779146 2.81281,0 0.779145,0.779147 0.779147,2.033661 0,2.812808 L 19.007832,67.865726 c -0.779147,0.779148 -2.033661,0.779145 -2.812806,0 -0.779147,-0.779145 -0.779147,-2.033662 0,-2.81281 z M 79.30008,8.9798822 a 8.2873153,8.2873153 0 0 1 11.720034,0 8.2873153,8.2873153 0 0 1 0,11.7200338 8.2873153,8.2873153 0 0 1 -11.720034,0 8.2873153,8.2873153 0 0 1 0,-11.7200338 z M 30.024665,67.162524 62.371959,34.815231 c 0.779147,-0.779147 2.033661,-0.779147 2.812808,0 0.779146,0.779146 0.779147,2.033662 0,2.812808 L 32.837472,69.975332 c -0.779147,0.779148 -2.033661,0.779146 -2.812807,0 -0.779147,-0.779147 -0.779147,-2.03366 0,-2.812808 z m 2.109605,13.82964 44.067329,-44.067326 c 0.779147,-0.779148 2.033661,-0.779148 2.812808,0 0.779146,0.779146 0.779146,2.03366 0,2.812807 L 34.947078,83.804971 c -0.779147,0.779148 -2.033661,0.779148 -2.812808,0 -0.779147,-0.779146 -0.779147,-2.033659 0,-2.812807 z" /></g></svg>
