<?xml version="1.0" encoding="UTF-8" standalone="no"?>
<!-- Uploaded to: SVG Repo, www.svgrepo.com, Generator: SVG Repo Mixer Tools -->

<svg
   version="1.1"
   id="svg2"
   sodipodi:docname="tags-svgrepo-com.svg"
   inkscape:version="1.3 (0e150ed6c4, 2023-07-21)"
   width="100"
   height="100"
   viewBox="0 0 100 100"
   enable-background="new 0 0 1200 1200"
   xml:space="preserve"
   xmlns:inkscape="http://www.inkscape.org/namespaces/inkscape"
   xmlns:sodipodi="http://sodipodi.sourceforge.net/DTD/sodipodi-0.dtd"
   xmlns="http://www.w3.org/2000/svg"
   xmlns:svg="http://www.w3.org/2000/svg"><defs
   id="defs1" /><sodipodi:namedview
   id="namedview1"
   pagecolor="#505050"
   bordercolor="#eeeeee"
   borderopacity="1"
   inkscape:showpageshadow="0"
   inkscape:pageopacity="0"
   inkscape:pagecheckerboard="0"
   inkscape:deskcolor="#d1d1d1"
   inkscape:zoom="5.695"
   inkscape:cx="11.67691"
   inkscape:cy="69.095698"
   inkscape:window-width="3440"
   inkscape:window-height="1377"
   inkscape:window-x="-8"
   inkscape:window-y="-8"
   inkscape:window-maximized="1"
   inkscape:current-layer="svg2" />&#10;<path
   id="path23160"
   inkscape:connector-curvature="0"
   d="M -2.8815117e-6,38.956469 V 14.733711 C 0.28991388,10.930376 3.0053314,8.3246255 6.4558325,8.2778755 H 30.67859 c 3.213251,0.053833 6.206419,1.2163337 8.83017,2.8010845 l 37.961345,41.69618 c 2.289001,2.939251 2.406334,6.597002 0,9.070336 L 49.405846,89.803069 c -2.835751,2.446751 -6.810002,2.668334 -9.070169,0 L 4.5884986,50.000723 C 2.0756644,46.890805 0.03724713,42.797304 -2.8815117e-6,38.956469 Z M 12.244834,29.352716 c 2.680834,2.471668 6.528502,2.243001 8.830086,0 2.460501,-2.658167 2.255001,-6.545919 0,-8.830086 -2.661667,-2.422918 -6.537835,-2.230667 -8.830086,0 -2.4332504,2.841834 -2.3418337,6.392169 0,8.830086 z M 42.203177,8.3845422 h 9.283586 C 55.378765,8.6245423 59.9846,10.158293 62.47785,12.973044 l 35.747178,39.908763 c 2.415422,2.789251 2.317342,6.795252 0,9.17692 L 70.267436,90.016402 c -3.874584,2.196251 -7.425586,2.043167 -9.81717,-0.747083 L 87.874275,61.845226 c 2.469418,-2.73225 2.205751,-6.672918 0,-9.070252 L 55.884848,16.982212 C 52.098264,12.256127 43.946178,8.5978756 42.203177,8.3845422 Z"
   style="stroke-width:1" />&#10;</svg>
